<svg width="24" height="23" viewBox="0 0 24 23" fill="none" xmlns="http://www.w3.org/2000/svg">
<path fill-rule="evenodd" clip-rule="evenodd" d="M13.3041 1.20528C13.0523 -0.40176 10.7382 -0.40176 10.4865 1.20528C10.295 2.42738 8.74481 2.84275 7.96796 1.88011C6.94641 0.614252 4.94235 1.77129 5.52784 3.28891C5.97309 4.443 4.83826 5.57783 3.68417 5.13258C2.16656 4.54709 1.00952 6.55115 2.27537 7.57269C3.23801 8.34954 2.82264 9.89974 1.60054 10.0912C-0.00649658 10.343 -0.00649658 12.657 1.60054 12.9088C2.82264 13.1003 3.23801 14.6505 2.27537 15.4273C1.04001 16.4242 2.11221 18.3569 3.57514 17.9053L9.14033 12.3849L6.99359 10.2477C6.60798 9.8638 6.60659 9.24 6.99047 8.85439L9.77096 6.06146C10.1549 5.67586 10.7787 5.67446 11.1643 6.05835L17.4952 12.3611C17.8808 12.745 17.8822 13.3688 17.4983 13.7544L14.7178 16.5473C14.3339 16.9329 13.7101 16.9343 13.3245 16.5504L11.227 14.4623L5.4231 20.2195C5.39233 21.4637 7.06444 22.2395 7.96796 21.1199C8.74481 20.1572 10.295 20.5726 10.4865 21.7947C10.7382 23.4018 13.0523 23.4018 13.3041 21.7947C13.4955 20.5726 15.0457 20.1572 15.8226 21.1199C16.8441 22.3857 18.8482 21.2287 18.2627 19.7111C17.8174 18.557 18.9523 17.4222 20.1064 17.8674C21.624 18.4529 22.781 16.4489 21.5151 15.4273C20.5525 14.6505 20.9679 13.1003 22.19 12.9088C23.797 12.657 23.797 10.343 22.19 10.0912C20.9679 9.89974 20.5525 8.34955 21.5151 7.57269C22.781 6.55114 21.624 4.54709 20.1063 5.13258C18.9523 5.57783 17.8174 4.443 18.2627 3.28891C18.8482 1.77129 16.8441 0.614253 15.8226 1.88011C15.0457 2.84275 13.4955 2.42738 13.3041 1.20528Z" fill="url(#paint0_linear_3_105)"/>
<defs>
<linearGradient id="paint0_linear_3_105" x1="5.98398" y1="1.78096" x2="17.6929" y2="21.5231" gradientUnits="userSpaceOnUse">
<stop stop-color="#FDE68A"/>
<stop offset="0.495377" stop-color="#FB923C"/>
<stop offset="1" stop-color="#DC2626"/>
</linearGradient>
</defs>
</svg>
