<svg width="62" height="16" viewBox="0 0 62 16" fill="none" xmlns="http://www.w3.org/2000/svg">
<path d="M24.5096 7.85707C24.5096 8.72495 23.8052 9.4285 22.9356 9.4285C22.0665 9.4285 21.3621 8.72495 21.3621 7.85707C21.3621 6.9892 22.0665 6.28564 22.9356 6.28564C23.8052 6.28564 24.5096 6.9892 24.5096 7.85707Z" fill="white"/>
<path fill-rule="evenodd" clip-rule="evenodd" d="M36.035 0V15.7143H31.8383V0H36.035Z" fill="white"/>
<path fill-rule="evenodd" clip-rule="evenodd" d="M37 15.7144V7.59531C37 5.71492 37.5616 4.19055 39.4448 4.19055C41.328 4.19055 42 5.71492 42 7.59531V15.7144H47.0514V7.59531C47.0514 3.40056 43.6458 6.96182e-05 39.4448 6.96182e-05C35.2438 6.96182e-05 31.8383 3.40056 31.8383 7.59531V15.7144H37Z" fill="white"/>
<path fill-rule="evenodd" clip-rule="evenodd" d="M19.6922 7.33337V8.11909C19.6922 9.99948 21.2188 11.5239 23.102 11.5239C24.9852 11.5239 26.5118 9.99948 26.5118 8.11909V7.33337H30.7086V8.11909C30.7086 12.3138 27.303 15.7143 23.102 15.7143C18.901 15.7143 15.4955 12.3138 15.4955 8.11909V7.33337H19.6922Z" fill="white"/>
<path fill-rule="evenodd" clip-rule="evenodd" d="M19.6922 7.59521C19.6922 5.71482 21.2188 4.19045 23.102 4.19045C24.9852 4.19045 26.5118 5.71482 26.5118 7.59521H30.7086C30.7086 3.40046 27.303 -2.27988e-05 23.102 -2.27988e-05C18.901 -2.27988e-05 15.4955 3.40046 15.4955 7.59521H19.6922Z" fill="white"/>
<path fill-rule="evenodd" clip-rule="evenodd" d="M0 0H8.91796C11.8152 0 14.1638 2.34517 14.1638 5.2381C14.1638 8.13103 12.1069 9.42857 9.20974 9.42857H6.69545H4.19668V15.7143H0V0ZM4.19668 6.28571H8.91796C9.49742 6.28571 9.96713 5.81667 9.96713 5.2381C9.96713 4.65952 9.49742 4.19048 8.91796 4.19048H4.19668V6.28571Z" fill="white"/>
<path fill-rule="evenodd" clip-rule="evenodd" d="M4.27121 6.28564H8.9925C11.8897 6.28564 14.2383 7.5832 14.2383 10.4761C14.2383 13.3691 11.8897 15.7142 8.9925 15.7142H3.97168L4.27121 6.28564ZM4.27121 11.5237H8.9925C9.57196 11.5237 10.0417 11.0547 10.0417 10.4761C10.0417 9.89754 9.57196 9.4285 8.9925 9.4285H4.27121V11.5237Z" fill="white"/>
<path fill-rule="evenodd" clip-rule="evenodd" d="M52.1967 0V15.7143H48V0H52.1967Z" fill="white"/>
<path fill-rule="evenodd" clip-rule="evenodd" d="M50.1014 6.83333C50.1014 2.50057 56.2033 0.107518 56 0H62C59.2106 2.85358 56.4365 4.57072 54.5 8.11499L52.1905 7.67143C52.1905 12.0108 52.3458 15.2143 48 15.2143V11.0238C50.0281 11.0238 50.1014 9.38219 50.1014 7.35714V6.83333Z" fill="white"/>
<path fill-rule="evenodd" clip-rule="evenodd" d="M51 9.11496C53.9477 13.349 54.8616 14.9842 56.5 15.5C58.1384 16.0158 61.7987 15.6608 62 15.6149C62.2013 15.569 54.5 6.11491 54.5 6.11491L52.1905 6.15771C50.4696 2.91731 51.9477 0.892762 49 0V7C51.0281 7 50.1014 4.44695 50.1014 6.472L51 9.11496Z" fill="white"/>
</svg>
